<svg width="512" height="512" viewBox="0 0 512 512" fill="none" xmlns="http://www.w3.org/2000/svg">
    <rect x="0" y="0" width="512" height="512" rx="100" fill="#1E1E1E"/>
    <rect x="0" y="0" width="512" height="512" rx="100" fill="url(#bg_grad)" opacity="0.2"/>
    
    <path d="M120 360 V220 C120 142.68 182.68 80 260 80 C337.32 80 400 142.68 400 220 V360" 
          stroke="url(#bridge_grad)" 
          stroke-width="60" 
          stroke-linecap="round"/>
    
    <rect x="105" y="240" width="30" height="20" rx="5" fill="#1E1E1E" fill-opacity="0.8"/>
    <rect x="105" y="290" width="30" height="20" rx="5" fill="#1E1E1E" fill-opacity="0.8"/>
    <rect x="105" y="340" width="30" height="20" rx="5" fill="#1E1E1E" fill-opacity="0.8"/>

    <rect x="385" y="240" width="30" height="20" rx="5" fill="#1E1E1E" fill-opacity="0.8"/>
    <rect x="385" y="290" width="30" height="20" rx="5" fill="#1E1E1E" fill-opacity="0.8"/>
    <rect x="385" y="340" width="30" height="20" rx="5" fill="#1E1E1E" fill-opacity="0.8"/>

    <rect x="150" y="160" width="20" height="30" rx="5" transform="rotate(-30 150 160)" fill="#1E1E1E" fill-opacity="0.8"/>
    <rect x="245" y="100" width="30" height="20" rx="5" fill="#1E1E1E" fill-opacity="0.8"/>
    <rect x="350" y="150" width="20" height="30" rx="5" transform="rotate(30 350 150)" fill="#1E1E1E" fill-opacity="0.8"/>

    <path d="M220 340 L330 260 L220 180 V340 Z" fill="white"/>

    <defs>
        <linearGradient id="bridge_grad" x1="120" y1="360" x2="400" y2="360" gradientUnits="userSpaceOnUse">
            <stop stop-color="#3498DB"/> <stop offset="1" stop-color="#E74C3C"/> </linearGradient>
        <linearGradient id="bg_grad" x1="0" y1="0" x2="512" y2="512" gradientUnits="userSpaceOnUse">
            <stop stop-color="#ffffff" stop-opacity="0.1"/>
            <stop offset="1" stop-color="#000000" stop-opacity="0.4"/>
        </linearGradient>
    </defs>
</svg>
